# xmcd CD database file
#
# Track frame offsets:
#	150
#	19957
#	31330
#	54190
#	87307
#	109195
#	134862
#
# Disc length: 2063 seconds
#
# Revision: 1
# Processed by: cddbd v1.4PL0 Copyright (c) Steve Scherf et al.
# Submitted via: CDex 1.50beta10
#
DISCID=5b080d07
DTITLE=ZOOT SIMS - CHOICE
DYEAR=1900
DGENRE=Jazz
TTITLE0=I 'LL REMEMBER APRIL
TTITLE1=FLAMINGO
TTITLE2=THERE WILL NEVER BE ANOTHER YOU
TTITLE3=RED DOOR
TTITLE4=YOU'RE DRIVING ME CRAZY
TTITLE5=BRUSHES
TTITLE6=CHOICE BLUES
EXTD=
EXTT0=
EXTT1=
EXTT2=
EXTT3=
EXTT4=
EXTT5=
EXTT6=
PLAYORDER=
